<svg width="20" height="20" viewBox="0 0 20 20" fill="none" xmlns="http://www.w3.org/2000/svg">
<path d="M12.8291 9.96869C13.6586 10.4569 14.6335 10.7304 15.6592 10.7304C16.5201 10.7304 17.3599 10.5305 18.1084 10.1669V16.6191C18.1082 18.0356 17.0773 19.2111 15.7246 19.4365V14.2822C15.7246 13.4932 15.0849 12.8535 14.2959 12.8535H12.8672C12.0784 12.8537 11.4395 13.4934 11.4395 14.2822V19.4755H4.74902C3.1712 19.4755 1.89181 18.1968 1.8916 16.6191V10.1669C2.64014 10.5303 3.48012 10.7304 4.34082 10.7304C5.36635 10.7304 6.34048 10.4568 7.16992 9.96869C7.99946 10.4569 8.9743 10.7304 10 10.7304C11.0255 10.7304 11.9997 10.4568 12.8291 9.96869ZM4.2959 12.8535C3.90167 12.8536 3.58225 13.1731 3.58203 13.5673V15.7109C3.58221 16.1052 3.90164 16.4246 4.2959 16.4247H8.58203C8.97634 16.4247 9.29572 16.1052 9.2959 15.7109V13.5673C9.29568 13.1731 8.97632 12.8535 8.58203 12.8535H4.2959ZM4.34082 1.19818C8.79064 0.577334 11.2687 0.582898 15.6592 1.19818C18.4884 2.22424 19.1962 4.88509 19.1963 5.74017C19.1963 7.51092 17.6125 8.94612 15.6592 8.94623C14.5022 8.94623 13.4744 8.4426 12.8291 7.664C12.1838 8.44255 11.1569 8.94616 10 8.94623C8.84297 8.94623 7.81524 8.4426 7.16992 7.664C6.52466 8.44254 5.49774 8.94615 4.34082 8.94623C2.38738 8.94623 0.803711 7.51099 0.803711 5.74017C0.803761 4.88506 1.51131 2.22417 4.34082 1.19818Z" fill="white" fill-opacity="0.5"/>
<path d="M12.8291 9.96869C13.6586 10.4569 14.6335 10.7304 15.6592 10.7304C16.5201 10.7304 17.3599 10.5305 18.1084 10.1669V16.6191C18.1082 18.0356 17.0773 19.2111 15.7246 19.4365V14.2822C15.7246 13.4932 15.0849 12.8535 14.2959 12.8535H12.8672C12.0784 12.8537 11.4395 13.4934 11.4395 14.2822V19.4755H4.74902C3.1712 19.4755 1.89181 18.1968 1.8916 16.6191V10.1669C2.64014 10.5303 3.48012 10.7304 4.34082 10.7304C5.36635 10.7304 6.34048 10.4568 7.16992 9.96869C7.99946 10.4569 8.9743 10.7304 10 10.7304C11.0255 10.7304 11.9997 10.4568 12.8291 9.96869ZM4.2959 12.8535C3.90167 12.8536 3.58225 13.1731 3.58203 13.5673V15.7109C3.58221 16.1052 3.90164 16.4246 4.2959 16.4247H8.58203C8.97634 16.4247 9.29572 16.1052 9.2959 15.7109V13.5673C9.29568 13.1731 8.97632 12.8535 8.58203 12.8535H4.2959ZM4.34082 1.19818C8.79064 0.577334 11.2687 0.582898 15.6592 1.19818C18.4884 2.22424 19.1962 4.88509 19.1963 5.74017C19.1963 7.51092 17.6125 8.94612 15.6592 8.94623C14.5022 8.94623 13.4744 8.4426 12.8291 7.664C12.1838 8.44255 11.1569 8.94616 10 8.94623C8.84297 8.94623 7.81524 8.4426 7.16992 7.664C6.52466 8.44254 5.49774 8.94615 4.34082 8.94623C2.38738 8.94623 0.803711 7.51099 0.803711 5.74017C0.803761 4.88506 1.51131 2.22417 4.34082 1.19818Z" fill="url(#paint0_linear_2002_175)"/>
<defs>
<linearGradient id="paint0_linear_2002_175" x1="2.40612" y1="-0.716029" x2="11.0159" y2="24.104" gradientUnits="userSpaceOnUse">
<stop stop-color="#97FCA6"/>
<stop offset="1" stop-color="#F6C90F"/>
</linearGradient>
</defs>
</svg>
