<svg width="20" height="20" viewBox="0 0 20 20" fill="none" xmlns="http://www.w3.org/2000/svg">
<path d="M12.8291 9.96899C13.6586 10.4572 14.6335 10.7307 15.6592 10.7307C16.5202 10.7307 17.3598 10.5299 18.1084 10.1663V16.6184C18.1084 18.0351 17.0775 19.2113 15.7246 19.4368V14.2815C15.7244 13.4928 15.0847 12.8538 14.2959 12.8538H12.8672C12.0786 12.854 11.4397 13.4929 11.4395 14.2815V19.4758H4.74902C3.17107 19.4758 1.8916 18.1963 1.8916 16.6184V10.1672C2.64014 10.5307 3.48012 10.7307 4.34082 10.7307C5.3663 10.7307 6.34051 10.457 7.16992 9.96899C7.99946 10.4572 8.9743 10.7307 10 10.7307C11.0255 10.7307 11.9997 10.457 12.8291 9.96899ZM4.2959 12.8538C3.90156 12.8539 3.58208 13.1733 3.58203 13.5676V15.7102C3.58203 16.1047 3.90153 16.4249 4.2959 16.425H8.58203C8.97646 16.425 9.2959 16.1047 9.2959 15.7102V13.5676C9.29585 13.1732 8.97642 12.8538 8.58203 12.8538H4.2959ZM4.34082 1.19751C8.79058 0.576675 11.2688 0.582231 15.6592 1.19751C18.4887 2.22355 19.1963 4.88547 19.1963 5.74048C19.1962 7.51112 17.6124 8.94642 15.6592 8.94653C14.5022 8.94653 13.4744 8.44291 12.8291 7.66431C12.1838 8.4428 11.1569 8.94646 10 8.94653C8.84297 8.94653 7.81524 8.44291 7.16992 7.66431C6.52466 8.4428 5.4977 8.94645 4.34082 8.94653C2.38746 8.94653 0.803847 7.51119 0.803711 5.74048C0.803711 4.88546 1.51121 2.22353 4.34082 1.19751Z" fill="white" fill-opacity="0.5"/>
<path d="M12.8291 9.96899C13.6586 10.4572 14.6335 10.7307 15.6592 10.7307C16.5202 10.7307 17.3598 10.5299 18.1084 10.1663V16.6184C18.1084 18.0351 17.0775 19.2113 15.7246 19.4368V14.2815C15.7244 13.4928 15.0847 12.8538 14.2959 12.8538H12.8672C12.0786 12.854 11.4397 13.4929 11.4395 14.2815V19.4758H4.74902C3.17107 19.4758 1.8916 18.1963 1.8916 16.6184V10.1672C2.64014 10.5307 3.48012 10.7307 4.34082 10.7307C5.3663 10.7307 6.34051 10.457 7.16992 9.96899C7.99946 10.4572 8.9743 10.7307 10 10.7307C11.0255 10.7307 11.9997 10.457 12.8291 9.96899ZM4.2959 12.8538C3.90156 12.8539 3.58208 13.1733 3.58203 13.5676V15.7102C3.58203 16.1047 3.90153 16.4249 4.2959 16.425H8.58203C8.97646 16.425 9.2959 16.1047 9.2959 15.7102V13.5676C9.29585 13.1732 8.97642 12.8538 8.58203 12.8538H4.2959ZM4.34082 1.19751C8.79058 0.576675 11.2688 0.582231 15.6592 1.19751C18.4887 2.22355 19.1963 4.88547 19.1963 5.74048C19.1962 7.51112 17.6124 8.94642 15.6592 8.94653C14.5022 8.94653 13.4744 8.44291 12.8291 7.66431C12.1838 8.4428 11.1569 8.94646 10 8.94653C8.84297 8.94653 7.81524 8.44291 7.16992 7.66431C6.52466 8.4428 5.4977 8.94645 4.34082 8.94653C2.38746 8.94653 0.803847 7.51119 0.803711 5.74048C0.803711 4.88546 1.51121 2.22353 4.34082 1.19751Z" fill="url(#paint0_linear_2002_175)"/>
<defs>
<linearGradient id="paint0_linear_2002_175" x1="2.40612" y1="-0.715648" x2="11.0151" y2="24.1033" gradientUnits="userSpaceOnUse">
<stop offset="1" stop-color="#8E8E8E"/>
</linearGradient>
</defs>
</svg>
